<?xml version="1.0" encoding="UTF-8" standalone="no"?><!DOCTYPE svg PUBLIC "-//W3C//DTD SVG 1.1//EN" "http://www.w3.org/Graphics/SVG/1.1/DTD/svg11.dtd"><svg width="100%" height="100%" viewBox="0 0 130 130" version="1.1" xmlns="http://www.w3.org/2000/svg" xmlns:xlink="http://www.w3.org/1999/xlink" xml:space="preserve" xmlns:serif="http://www.serif.com/" style="fill-rule:evenodd;clip-rule:evenodd;stroke-linejoin:round;stroke-miterlimit:1.41421;"><g id="LOGO"><path d="M107.918,21.701c23.688,23.687 23.688,62.149 0,85.836c-23.687,23.687 -62.149,23.687 -85.836,0c-23.688,-23.687 -23.688,-62.149 0,-85.836c23.687,-23.688 62.149,-23.688 85.836,0Z" style="fill:#1b1b1b;"/><path d="M125.507,64.59l-60.533,-60.478l-60.478,60.533l60.533,60.478l60.478,-60.533Z" style="fill:#e9e9e9;"/><path d="M40.112,46.73c-0.459,-0.673 -1.127,-1.01 -2.004,-1.01c-0.273,0 -0.541,0.037 -0.805,0.11c-0.263,0.073 -0.499,0.185 -0.709,0.336c-0.21,0.152 -0.378,0.347 -0.505,0.586c-0.126,0.238 -0.19,0.519 -0.19,0.841c0,0.468 0.132,0.831 0.395,1.089c0.263,0.259 0.59,0.471 0.98,0.637c0.39,0.165 0.817,0.314 1.28,0.446c0.463,0.131 0.89,0.307 1.28,0.526c0.39,0.22 0.717,0.51 0.98,0.871c0.263,0.36 0.395,0.853 0.395,1.477c0,0.468 -0.1,0.89 -0.3,1.265c-0.2,0.376 -0.463,0.69 -0.79,0.944c-0.327,0.253 -0.692,0.448 -1.097,0.585c-0.405,0.136 -0.812,0.204 -1.221,0.204c-0.634,0 -1.236,-0.119 -1.807,-0.358c-0.57,-0.239 -1.055,-0.631 -1.455,-1.177l0.951,-0.688c0.224,0.38 0.536,0.685 0.936,0.914c0.4,0.23 0.872,0.344 1.419,0.344c0.263,0 0.526,-0.041 0.789,-0.124c0.264,-0.083 0.5,-0.205 0.71,-0.366c0.209,-0.161 0.383,-0.358 0.519,-0.592c0.137,-0.234 0.205,-0.503 0.205,-0.805c0,-0.361 -0.076,-0.66 -0.227,-0.899c-0.151,-0.239 -0.351,-0.439 -0.6,-0.6c-0.248,-0.161 -0.531,-0.295 -0.848,-0.402c-0.317,-0.108 -0.644,-0.215 -0.98,-0.322c-0.336,-0.107 -0.663,-0.229 -0.98,-0.366c-0.317,-0.136 -0.6,-0.309 -0.848,-0.519c-0.249,-0.21 -0.449,-0.473 -0.6,-0.79c-0.151,-0.317 -0.227,-0.714 -0.227,-1.192c0,-0.497 0.095,-0.931 0.285,-1.302c0.191,-0.37 0.444,-0.678 0.761,-0.921c0.317,-0.244 0.675,-0.424 1.075,-0.542c0.4,-0.117 0.81,-0.175 1.229,-0.175c0.585,0 1.116,0.093 1.594,0.278c0.478,0.185 0.922,0.512 1.331,0.98l-0.921,0.717Z" style="fill:#1b1b1b;fill-rule:nonzero;"/><path d="M54.388,55.374l-5.924,0c-0.751,0 -1.446,-0.131 -2.085,-0.395c-0.638,-0.263 -1.192,-0.631 -1.66,-1.104c-0.468,-0.473 -0.833,-1.034 -1.097,-1.682c-0.263,-0.649 -0.395,-1.358 -0.395,-2.128c0,-0.771 0.132,-1.48 0.395,-2.129c0.264,-0.648 0.629,-1.209 1.097,-1.682c0.468,-0.473 1.022,-0.841 1.66,-1.104c0.639,-0.263 1.334,-0.395 2.085,-0.395c0.741,0 1.431,0.132 2.07,0.395c0.638,0.263 1.192,0.631 1.66,1.104c0.468,0.473 0.833,1.034 1.097,1.682c0.263,0.649 0.395,1.358 0.395,2.129c0,0.936 -0.193,1.777 -0.578,2.523c-0.385,0.746 -1.002,1.343 -1.85,1.792l0,0.029l3.13,0l0,0.965Zm-10.02,-5.309c0,0.575 0.093,1.123 0.278,1.645c0.185,0.522 0.454,0.983 0.805,1.382c0.351,0.4 0.78,0.72 1.287,0.958c0.507,0.239 1.082,0.359 1.726,0.359c0.634,0 1.204,-0.12 1.711,-0.359c0.507,-0.238 0.936,-0.558 1.287,-0.958c0.351,-0.399 0.62,-0.86 0.805,-1.382c0.185,-0.522 0.278,-1.07 0.278,-1.645c0,-0.576 -0.093,-1.124 -0.278,-1.646c-0.185,-0.522 -0.454,-0.982 -0.805,-1.382c-0.351,-0.4 -0.78,-0.719 -1.287,-0.958c-0.507,-0.239 -1.077,-0.359 -1.711,-0.359c-0.644,0 -1.219,0.12 -1.726,0.359c-0.507,0.239 -0.936,0.558 -1.287,0.958c-0.351,0.4 -0.62,0.86 -0.805,1.382c-0.185,0.522 -0.278,1.07 -0.278,1.646Z" style="fill:#1b1b1b;fill-rule:nonzero;"/><path d="M64.115,51.513c0,0.429 -0.051,0.885 -0.154,1.367c-0.102,0.483 -0.295,0.929 -0.578,1.339c-0.282,0.409 -0.67,0.748 -1.162,1.016c-0.493,0.268 -1.124,0.402 -1.895,0.402c-0.78,0 -1.414,-0.134 -1.901,-0.402c-0.488,-0.268 -0.873,-0.607 -1.156,-1.016c-0.283,-0.41 -0.475,-0.856 -0.577,-1.339c-0.103,-0.482 -0.154,-0.938 -0.154,-1.367l0,-6.495l1.053,0l0,6.378c0,0.497 0.049,0.924 0.146,1.28c0.098,0.355 0.227,0.655 0.388,0.899c0.161,0.244 0.341,0.436 0.541,0.578c0.2,0.141 0.4,0.251 0.6,0.329c0.2,0.078 0.392,0.129 0.578,0.154c0.185,0.024 0.346,0.036 0.482,0.036c0.127,0 0.286,-0.012 0.476,-0.036c0.19,-0.025 0.385,-0.076 0.585,-0.154c0.2,-0.078 0.4,-0.188 0.599,-0.329c0.2,-0.142 0.381,-0.334 0.542,-0.578c0.161,-0.244 0.29,-0.544 0.387,-0.899c0.098,-0.356 0.147,-0.783 0.147,-1.28l0,-6.378l1.053,0l0,6.495Z" style="fill:#1b1b1b;fill-rule:nonzero;"/><path d="M68.693,51.688l4.49,0l-2.237,-5.441l-2.253,5.441Zm-1.536,3.686l-1.229,0l4.506,-10.356l1.023,0l4.506,10.356l-1.229,0l-1.141,-2.72l-5.295,0l-1.141,2.72Z" style="fill:#1b1b1b;fill-rule:nonzero;"/><path d="M79.005,49.597l1.872,0c0.468,0 0.866,-0.049 1.192,-0.147c0.327,-0.097 0.588,-0.226 0.783,-0.387c0.195,-0.161 0.336,-0.351 0.424,-0.571c0.088,-0.219 0.132,-0.456 0.132,-0.709c0,-0.244 -0.044,-0.476 -0.132,-0.695c-0.088,-0.219 -0.229,-0.412 -0.424,-0.578c-0.195,-0.166 -0.456,-0.295 -0.783,-0.387c-0.326,-0.093 -0.724,-0.139 -1.192,-0.139l-1.872,0l0,3.613Zm0,5.777l-1.053,0l0,-10.356l3.189,0c1.053,0 1.884,0.229 2.493,0.688c0.61,0.458 0.915,1.15 0.915,2.077c0,0.721 -0.227,1.328 -0.68,1.821c-0.454,0.492 -1.11,0.777 -1.968,0.856l2.984,4.914l-1.287,0l-2.838,-4.812l-1.755,0l0,4.812Z" style="fill:#1b1b1b;fill-rule:nonzero;"/><path d="M88.264,54.409l5.544,0l0,0.965l-6.597,0l0,-10.356l6.421,0l0,0.966l-5.368,0l0,3.525l5.017,0l0,0.965l-5.017,0l0,3.935Z" style="fill:#1b1b1b;fill-rule:nonzero;"/><rect x="21.85" y="59.441" width="1.053" height="10.356" style="fill:#1b1b1b;fill-rule:nonzero;"/><path d="M33.786,68.217l0.029,0l0,-8.776l1.053,0l0,10.356l-1.316,0l-6.173,-8.864l-0.029,0l0,8.864l-1.053,0l0,-10.356l1.316,0l6.173,8.776Z" style="fill:#1b1b1b;fill-rule:nonzero;"/><path d="M44.273,66.111l4.491,0l-2.238,-5.441l-2.253,5.441Zm-1.535,3.686l-1.229,0l4.505,-10.356l1.024,0l4.505,10.356l-1.229,0l-1.14,-2.721l-5.295,0l-1.141,2.721Z" style="fill:#1b1b1b;fill-rule:nonzero;"/><path d="M66.711,68.159c-0.175,0.263 -0.392,0.511 -0.651,0.746c-0.258,0.234 -0.553,0.436 -0.884,0.607c-0.332,0.17 -0.69,0.304 -1.076,0.402c-0.385,0.097 -0.792,0.146 -1.221,0.146c-0.77,0 -1.485,-0.136 -2.143,-0.409c-0.658,-0.274 -1.228,-0.651 -1.711,-1.134c-0.483,-0.483 -0.861,-1.056 -1.134,-1.719c-0.273,-0.663 -0.409,-1.389 -0.409,-2.179c0,-0.79 0.136,-1.517 0.409,-2.18c0.273,-0.663 0.651,-1.236 1.134,-1.718c0.483,-0.483 1.053,-0.861 1.711,-1.134c0.658,-0.273 1.373,-0.409 2.143,-0.409c0.644,0 1.287,0.126 1.931,0.38c0.643,0.253 1.194,0.673 1.653,1.258l-0.922,0.687c-0.107,-0.166 -0.253,-0.331 -0.439,-0.497c-0.185,-0.166 -0.397,-0.312 -0.636,-0.439c-0.239,-0.127 -0.495,-0.229 -0.768,-0.307c-0.273,-0.078 -0.546,-0.117 -0.819,-0.117c-0.663,0 -1.258,0.122 -1.784,0.366c-0.527,0.243 -0.973,0.57 -1.339,0.98c-0.365,0.409 -0.646,0.885 -0.841,1.426c-0.195,0.541 -0.292,1.109 -0.292,1.704c0,0.595 0.097,1.163 0.292,1.704c0.195,0.541 0.476,1.016 0.841,1.426c0.366,0.41 0.812,0.736 1.339,0.98c0.526,0.244 1.121,0.366 1.784,0.366c0.273,0 0.544,-0.025 0.812,-0.073c0.268,-0.049 0.531,-0.132 0.79,-0.249c0.258,-0.117 0.502,-0.276 0.731,-0.475c0.229,-0.2 0.441,-0.451 0.636,-0.754l0.863,0.615Z" style="fill:#1b1b1b;fill-rule:nonzero;"/><rect x="69.066" y="59.441" width="1.053" height="10.356" style="fill:#1b1b1b;fill-rule:nonzero;"/><path d="M74.566,64.019l1.872,0c0.468,0 0.866,-0.049 1.192,-0.146c0.327,-0.098 0.588,-0.227 0.783,-0.388c0.195,-0.161 0.336,-0.351 0.424,-0.57c0.088,-0.22 0.132,-0.456 0.132,-0.71c0,-0.243 -0.044,-0.475 -0.132,-0.694c-0.088,-0.22 -0.229,-0.412 -0.424,-0.578c-0.195,-0.166 -0.456,-0.295 -0.783,-0.388c-0.326,-0.092 -0.724,-0.139 -1.192,-0.139l-1.872,0l0,3.613Zm0,5.778l-1.053,0l0,-10.356l3.189,0c1.053,0 1.884,0.229 2.494,0.687c0.609,0.459 0.914,1.151 0.914,2.077c0,0.722 -0.227,1.329 -0.68,1.821c-0.454,0.493 -1.11,0.778 -1.968,0.856l2.984,4.915l-1.287,0l-2.838,-4.813l-1.755,0l0,4.813Z" style="fill:#1b1b1b;fill-rule:nonzero;"/><path d="M91.299,68.159c-0.175,0.263 -0.392,0.511 -0.65,0.746c-0.259,0.234 -0.554,0.436 -0.885,0.607c-0.332,0.17 -0.69,0.304 -1.076,0.402c-0.385,0.097 -0.792,0.146 -1.221,0.146c-0.77,0 -1.485,-0.136 -2.143,-0.409c-0.658,-0.274 -1.228,-0.651 -1.711,-1.134c-0.483,-0.483 -0.861,-1.056 -1.134,-1.719c-0.273,-0.663 -0.409,-1.389 -0.409,-2.179c0,-0.79 0.136,-1.517 0.409,-2.18c0.273,-0.663 0.651,-1.236 1.134,-1.718c0.483,-0.483 1.053,-0.861 1.711,-1.134c0.658,-0.273 1.373,-0.409 2.143,-0.409c0.644,0 1.287,0.126 1.931,0.38c0.643,0.253 1.194,0.673 1.653,1.258l-0.922,0.687c-0.107,-0.166 -0.253,-0.331 -0.439,-0.497c-0.185,-0.166 -0.397,-0.312 -0.636,-0.439c-0.239,-0.127 -0.495,-0.229 -0.768,-0.307c-0.273,-0.078 -0.546,-0.117 -0.819,-0.117c-0.663,0 -1.258,0.122 -1.784,0.366c-0.527,0.243 -0.973,0.57 -1.339,0.98c-0.365,0.409 -0.646,0.885 -0.841,1.426c-0.195,0.541 -0.292,1.109 -0.292,1.704c0,0.595 0.097,1.163 0.292,1.704c0.195,0.541 0.476,1.016 0.841,1.426c0.366,0.41 0.812,0.736 1.339,0.98c0.526,0.244 1.121,0.366 1.784,0.366c0.273,0 0.544,-0.025 0.812,-0.073c0.268,-0.049 0.531,-0.132 0.79,-0.249c0.258,-0.117 0.502,-0.276 0.731,-0.475c0.229,-0.2 0.441,-0.451 0.636,-0.754l0.863,0.615Z" style="fill:#1b1b1b;fill-rule:nonzero;"/><path d="M94.708,68.831l4.826,0l0,0.966l-5.88,0l0,-10.356l1.054,0l0,9.39Z" style="fill:#1b1b1b;fill-rule:nonzero;"/><path d="M102.606,68.831l5.544,0l0,0.966l-6.597,0l0,-10.356l6.421,0l0,0.965l-5.368,0l0,3.525l5.017,0l0,0.966l-5.017,0l0,3.934Z" style="fill:#1b1b1b;fill-rule:nonzero;"/><path d="M37.962,83.254l2.047,0c0.79,0 1.475,-0.119 2.055,-0.358c0.581,-0.239 1.063,-0.556 1.449,-0.951c0.385,-0.395 0.67,-0.844 0.855,-1.346c0.186,-0.502 0.278,-1.021 0.278,-1.558c0,-0.536 -0.092,-1.055 -0.278,-1.557c-0.185,-0.503 -0.47,-0.951 -0.855,-1.346c-0.386,-0.395 -0.868,-0.712 -1.449,-0.951c-0.58,-0.239 -1.265,-0.358 -2.055,-0.358l-2.047,0l0,8.425Zm-1.054,-9.391l3.438,0c0.643,0 1.289,0.108 1.938,0.322c0.648,0.215 1.233,0.539 1.755,0.973c0.522,0.434 0.944,0.975 1.265,1.624c0.322,0.648 0.483,1.401 0.483,2.259c0,0.868 -0.161,1.624 -0.483,2.268c-0.321,0.643 -0.743,1.182 -1.265,1.616c-0.522,0.434 -1.107,0.758 -1.755,0.973c-0.649,0.214 -1.295,0.321 -1.938,0.321l-3.438,0l0,-10.356Z" style="fill:#1b1b1b;fill-rule:nonzero;"/><path d="M49.532,83.254l5.543,0l0,0.965l-6.597,0l0,-10.356l6.422,0l0,0.966l-5.368,0l0,3.525l5.017,0l0,0.965l-5.017,0l0,3.935Z" style="fill:#1b1b1b;fill-rule:nonzero;"/><path d="M62.637,75.575c-0.458,-0.673 -1.126,-1.009 -2.004,-1.009c-0.273,0 -0.541,0.036 -0.804,0.109c-0.263,0.073 -0.5,0.186 -0.709,0.337c-0.21,0.151 -0.378,0.346 -0.505,0.585c-0.127,0.239 -0.19,0.519 -0.19,0.841c0,0.468 0.131,0.831 0.395,1.09c0.263,0.258 0.59,0.47 0.98,0.636c0.39,0.166 0.816,0.314 1.28,0.446c0.463,0.132 0.889,0.307 1.279,0.526c0.391,0.22 0.717,0.51 0.98,0.871c0.264,0.361 0.395,0.853 0.395,1.477c0,0.468 -0.1,0.89 -0.299,1.265c-0.2,0.376 -0.464,0.69 -0.79,0.944c-0.327,0.253 -0.693,0.448 -1.097,0.585c-0.405,0.136 -0.812,0.205 -1.222,0.205c-0.634,0 -1.236,-0.12 -1.806,-0.359c-0.571,-0.239 -1.056,-0.631 -1.456,-1.177l0.951,-0.688c0.225,0.381 0.537,0.685 0.936,0.915c0.4,0.229 0.873,0.343 1.419,0.343c0.263,0 0.527,-0.041 0.79,-0.124c0.263,-0.083 0.5,-0.205 0.709,-0.366c0.21,-0.161 0.383,-0.358 0.52,-0.592c0.136,-0.234 0.205,-0.502 0.205,-0.805c0,-0.36 -0.076,-0.66 -0.227,-0.899c-0.151,-0.239 -0.351,-0.439 -0.6,-0.6c-0.249,-0.161 -0.531,-0.295 -0.848,-0.402c-0.317,-0.107 -0.644,-0.215 -0.98,-0.322c-0.337,-0.107 -0.663,-0.229 -0.98,-0.366c-0.317,-0.136 -0.6,-0.309 -0.849,-0.519c-0.248,-0.21 -0.448,-0.473 -0.599,-0.79c-0.152,-0.317 -0.227,-0.714 -0.227,-1.192c0,-0.497 0.095,-0.931 0.285,-1.302c0.19,-0.37 0.444,-0.677 0.761,-0.921c0.317,-0.244 0.675,-0.424 1.075,-0.541c0.4,-0.117 0.809,-0.176 1.228,-0.176c0.586,0 1.117,0.093 1.595,0.278c0.478,0.185 0.921,0.512 1.331,0.98l-0.922,0.717Z" style="fill:#1b1b1b;fill-rule:nonzero;"/><rect x="66.455" y="73.863" width="1.053" height="10.356" style="fill:#1b1b1b;fill-rule:nonzero;"/><path d="M78.552,75.765c-0.351,-0.371 -0.771,-0.663 -1.258,-0.878c-0.488,-0.214 -1.053,-0.321 -1.697,-0.321c-0.663,0 -1.258,0.121 -1.785,0.365c-0.526,0.244 -0.972,0.571 -1.338,0.98c-0.366,0.41 -0.646,0.885 -0.841,1.426c-0.195,0.542 -0.293,1.11 -0.293,1.704c0,0.595 0.098,1.163 0.293,1.704c0.195,0.542 0.475,1.017 0.841,1.427c0.366,0.409 0.812,0.736 1.338,0.98c0.527,0.243 1.122,0.365 1.785,0.365c0.536,0 1.051,-0.066 1.543,-0.197c0.493,-0.132 0.934,-0.31 1.324,-0.534l0,-3.467l-2.472,0l0,-0.965l3.525,0l0,5.076c-0.585,0.341 -1.226,0.602 -1.923,0.782c-0.698,0.18 -1.363,0.271 -1.997,0.271c-0.77,0 -1.485,-0.137 -2.143,-0.41c-0.658,-0.273 -1.229,-0.651 -1.711,-1.133c-0.483,-0.483 -0.861,-1.056 -1.134,-1.719c-0.273,-0.663 -0.409,-1.39 -0.409,-2.18c0,-0.789 0.136,-1.516 0.409,-2.179c0.273,-0.663 0.651,-1.236 1.134,-1.719c0.482,-0.482 1.053,-0.86 1.711,-1.133c0.658,-0.273 1.373,-0.41 2.143,-0.41c0.829,0 1.543,0.115 2.143,0.344c0.6,0.229 1.133,0.578 1.601,1.046l-0.789,0.775Z" style="fill:#1b1b1b;fill-rule:nonzero;"/><path d="M90.356,82.64l0.029,0l0,-8.777l1.053,0l0,10.356l-1.316,0l-6.173,-8.864l-0.029,0l0,8.864l-1.053,0l0,-10.356l1.316,0l6.173,8.777Z" style="fill:#1b1b1b;fill-rule:nonzero;"/></g></svg>