<?xml version="1.0" encoding="UTF-8" standalone="no"?><!DOCTYPE svg PUBLIC "-//W3C//DTD SVG 1.1//EN" "http://www.w3.org/Graphics/SVG/1.1/DTD/svg11.dtd"><svg width="100%" height="100%" viewBox="0 0 822 187" version="1.1" xmlns="http://www.w3.org/2000/svg" xmlns:xlink="http://www.w3.org/1999/xlink" xml:space="preserve" xmlns:serif="http://www.serif.com/" style="fill-rule:evenodd;clip-rule:evenodd;stroke-linejoin:round;stroke-miterlimit:1.41421;"><g id="LOGO-2" serif:id="LOGO 2"><g><path d="M138.291,39.043c30.5,30.501 30.5,80.026 0,110.527c-30.501,30.5 -80.026,30.5 -110.527,0c-30.501,-30.501 -30.501,-80.026 0,-110.527c30.501,-30.501 80.026,-30.501 110.527,0Z" style="fill:#1b1b1b;"/><path d="M160.939,94.269l-77.945,-77.874l-77.875,77.945l77.945,77.874l77.875,-77.945Z" style="fill:#e9e9e9;"/></g><path d="M199.174,57.385c-1.9,-2.789 -4.668,-4.183 -8.306,-4.183c-1.131,0 -2.243,0.151 -3.334,0.454c-1.092,0.303 -2.072,0.768 -2.941,1.395c-0.869,0.626 -1.566,1.434 -2.091,2.425c-0.526,0.99 -0.788,2.152 -0.788,3.486c0,1.94 0.545,3.445 1.637,4.516c1.091,1.071 2.445,1.951 4.062,2.638c1.616,0.687 3.384,1.303 5.304,1.849c1.92,0.545 3.688,1.273 5.305,2.182c1.617,0.91 2.971,2.112 4.062,3.608c1.091,1.495 1.637,3.536 1.637,6.123c0,1.94 -0.414,3.688 -1.243,5.244c-0.828,1.556 -1.92,2.86 -3.274,3.91c-1.354,1.051 -2.869,1.86 -4.547,2.425c-1.677,0.566 -3.364,0.849 -5.062,0.849c-2.627,0 -5.123,-0.495 -7.487,-1.485c-2.365,-0.99 -4.375,-2.617 -6.033,-4.881l3.941,-2.849c0.93,1.576 2.223,2.839 3.88,3.789c1.657,0.95 3.618,1.425 5.881,1.425c1.091,0 2.182,-0.172 3.274,-0.515c1.091,-0.344 2.071,-0.849 2.94,-1.516c0.869,-0.667 1.587,-1.485 2.152,-2.455c0.566,-0.97 0.849,-2.082 0.849,-3.335c0,-1.495 -0.313,-2.738 -0.94,-3.728c-0.626,-0.991 -1.455,-1.819 -2.485,-2.486c-1.031,-0.667 -2.203,-1.223 -3.517,-1.667c-1.313,-0.445 -2.667,-0.89 -4.062,-1.334c-1.394,-0.445 -2.748,-0.95 -4.061,-1.516c-1.314,-0.566 -2.486,-1.283 -3.517,-2.152c-1.03,-0.869 -1.859,-1.96 -2.486,-3.274c-0.626,-1.313 -0.939,-2.96 -0.939,-4.941c0,-2.061 0.394,-3.86 1.182,-5.396c0.788,-1.535 1.839,-2.809 3.153,-3.819c1.313,-1.011 2.798,-1.758 4.456,-2.243c1.657,-0.485 3.354,-0.728 5.092,-0.728c2.425,0 4.628,0.384 6.608,1.152c1.981,0.768 3.82,2.122 5.517,4.062l-3.819,2.971Z" style="fill:#1b1b1b;fill-rule:nonzero;"/><path d="M258.345,93.215l-24.553,0c-3.112,0 -5.992,-0.546 -8.64,-1.637c-2.647,-1.091 -4.941,-2.617 -6.881,-4.577c-1.94,-1.96 -3.455,-4.284 -4.547,-6.972c-1.091,-2.688 -1.637,-5.628 -1.637,-8.821c0,-3.193 0.546,-6.134 1.637,-8.822c1.092,-2.687 2.607,-5.011 4.547,-6.972c1.94,-1.96 4.234,-3.486 6.881,-4.577c2.648,-1.091 5.528,-1.637 8.64,-1.637c3.071,0 5.931,0.546 8.578,1.637c2.648,1.091 4.941,2.617 6.881,4.577c1.94,1.961 3.456,4.285 4.547,6.972c1.092,2.688 1.637,5.629 1.637,8.822c0,3.88 -0.798,7.366 -2.394,10.458c-1.597,3.092 -4.153,5.567 -7.67,7.426l0,0.122l12.974,0l0,4.001Zm-41.529,-22.007c0,2.384 0.384,4.658 1.152,6.82c0.768,2.162 1.88,4.072 3.335,5.729c1.455,1.657 3.233,2.981 5.335,3.971c2.101,0.991 4.486,1.486 7.154,1.486c2.627,0 4.991,-0.495 7.093,-1.486c2.102,-0.99 3.88,-2.314 5.335,-3.971c1.455,-1.657 2.567,-3.567 3.335,-5.729c0.767,-2.162 1.151,-4.436 1.151,-6.82c0,-2.385 -0.384,-4.659 -1.151,-6.821c-0.768,-2.162 -1.88,-4.072 -3.335,-5.729c-1.455,-1.657 -3.233,-2.981 -5.335,-3.971c-2.102,-0.99 -4.466,-1.485 -7.093,-1.485c-2.668,0 -5.053,0.495 -7.154,1.485c-2.102,0.99 -3.88,2.314 -5.335,3.971c-1.455,1.657 -2.567,3.567 -3.335,5.729c-0.768,2.162 -1.152,4.436 -1.152,6.821Z" style="fill:#1b1b1b;fill-rule:nonzero;"/><path d="M298.662,77.21c0,1.778 -0.212,3.668 -0.637,5.668c-0.424,2.001 -1.222,3.85 -2.394,5.547c-1.173,1.698 -2.779,3.103 -4.82,4.214c-2.041,1.111 -4.658,1.667 -7.851,1.667c-3.234,0 -5.861,-0.556 -7.882,-1.667c-2.021,-1.111 -3.617,-2.516 -4.789,-4.214c-1.172,-1.697 -1.971,-3.546 -2.395,-5.547c-0.424,-2 -0.637,-3.89 -0.637,-5.668l0,-26.918l4.366,0l0,26.433c0,2.061 0.202,3.829 0.606,5.304c0.404,1.476 0.94,2.718 1.606,3.729c0.667,1.01 1.415,1.809 2.244,2.395c0.828,0.586 1.657,1.04 2.485,1.364c0.829,0.323 1.627,0.535 2.395,0.636c0.768,0.101 1.435,0.152 2.001,0.152c0.525,0 1.182,-0.051 1.97,-0.152c0.788,-0.101 1.597,-0.313 2.425,-0.636c0.829,-0.324 1.657,-0.778 2.486,-1.364c0.828,-0.586 1.576,-1.385 2.243,-2.395c0.667,-1.011 1.202,-2.253 1.607,-3.729c0.404,-1.475 0.606,-3.243 0.606,-5.304l0,-26.433l4.365,0l0,26.918Z" style="fill:#1b1b1b;fill-rule:nonzero;"/><path d="M317.638,77.937l18.612,0l-9.276,-22.553l-9.336,22.553Zm-6.366,15.278l-5.092,0l18.672,-42.923l4.244,0l18.673,42.923l-5.092,0l-4.729,-11.277l-21.947,0l-4.729,11.277Z" style="fill:#1b1b1b;fill-rule:nonzero;"/><path d="M360.38,69.268l7.76,0c1.94,0 3.587,-0.203 4.941,-0.607c1.354,-0.404 2.435,-0.939 3.243,-1.606c0.809,-0.667 1.395,-1.455 1.758,-2.365c0.364,-0.909 0.546,-1.889 0.546,-2.94c0,-1.011 -0.182,-1.97 -0.546,-2.88c-0.363,-0.909 -0.949,-1.708 -1.758,-2.395c-0.808,-0.687 -1.889,-1.222 -3.243,-1.606c-1.354,-0.384 -3.001,-0.576 -4.941,-0.576l-7.76,0l0,14.975Zm0,23.947l-4.366,0l0,-42.923l13.217,0c4.365,0 7.811,0.949 10.337,2.849c2.526,1.9 3.789,4.769 3.789,8.609c0,2.991 -0.94,5.507 -2.819,7.548c-1.88,2.041 -4.598,3.223 -8.154,3.547l12.367,20.37l-5.335,0l-11.761,-19.946l-7.275,0l0,19.946Z" style="fill:#1b1b1b;fill-rule:nonzero;"/><path d="M398.756,89.214l22.977,0l0,4.001l-27.342,0l0,-42.923l26.615,0l0,4.001l-22.25,0l0,14.611l20.795,0l0,4.001l-20.795,0l0,16.309Z" style="fill:#1b1b1b;fill-rule:nonzero;"/><rect x="452.047" y="50.292" width="4.365" height="42.923" style="fill:#1b1b1b;fill-rule:nonzero;"/><path d="M501.518,86.667l0.121,0l0,-36.375l4.365,0l0,42.923l-5.456,0l-25.585,-36.74l-0.121,0l0,36.74l-4.365,0l0,-42.923l5.456,0l25.585,36.375Z" style="fill:#1b1b1b;fill-rule:nonzero;"/><path d="M544.987,77.937l18.612,0l-9.276,-22.553l-9.336,22.553Zm-6.366,15.278l-5.093,0l18.673,-42.923l4.244,0l18.673,42.923l-5.093,0l-4.728,-11.277l-21.947,0l-4.729,11.277Z" style="fill:#1b1b1b;fill-rule:nonzero;"/><path d="M637.988,86.425c-0.728,1.091 -1.627,2.122 -2.698,3.092c-1.071,0.97 -2.294,1.808 -3.668,2.516c-1.374,0.707 -2.86,1.263 -4.456,1.667c-1.597,0.404 -3.284,0.606 -5.063,0.606c-3.192,0 -6.153,-0.566 -8.881,-1.697c-2.728,-1.132 -5.093,-2.698 -7.094,-4.699c-2,-2.001 -3.566,-4.375 -4.698,-7.123c-1.132,-2.749 -1.698,-5.76 -1.698,-9.034c0,-3.274 0.566,-6.285 1.698,-9.033c1.132,-2.748 2.698,-5.123 4.698,-7.124c2.001,-2 4.366,-3.567 7.094,-4.698c2.728,-1.132 5.689,-1.698 8.881,-1.698c2.668,0 5.336,0.526 8.003,1.577c2.668,1.05 4.951,2.788 6.851,5.213l-3.82,2.85c-0.444,-0.687 -1.05,-1.374 -1.818,-2.061c-0.768,-0.688 -1.647,-1.294 -2.638,-1.819c-0.99,-0.526 -2.051,-0.95 -3.182,-1.273c-1.132,-0.324 -2.264,-0.485 -3.396,-0.485c-2.748,0 -5.213,0.505 -7.396,1.515c-2.182,1.011 -4.032,2.365 -5.547,4.062c-1.516,1.698 -2.678,3.668 -3.486,5.911c-0.809,2.243 -1.213,4.598 -1.213,7.063c0,2.466 0.404,4.82 1.213,7.063c0.808,2.243 1.97,4.214 3.486,5.911c1.515,1.698 3.365,3.052 5.547,4.062c2.183,1.011 4.648,1.516 7.396,1.516c1.132,0 2.254,-0.101 3.365,-0.303c1.112,-0.202 2.203,-0.546 3.274,-1.031c1.071,-0.485 2.082,-1.142 3.031,-1.97c0.95,-0.829 1.829,-1.87 2.638,-3.122l3.577,2.546Z" style="fill:#1b1b1b;fill-rule:nonzero;"/><rect x="647.748" y="50.292" width="4.365" height="42.923" style="fill:#1b1b1b;fill-rule:nonzero;"/><path d="M670.544,69.268l7.76,0c1.94,0 3.587,-0.203 4.941,-0.607c1.354,-0.404 2.435,-0.939 3.244,-1.606c0.808,-0.667 1.394,-1.455 1.758,-2.365c0.364,-0.909 0.545,-1.889 0.545,-2.94c0,-1.011 -0.181,-1.97 -0.545,-2.88c-0.364,-0.909 -0.95,-1.708 -1.758,-2.395c-0.809,-0.687 -1.89,-1.222 -3.244,-1.606c-1.354,-0.384 -3.001,-0.576 -4.941,-0.576l-7.76,0l0,14.975Zm0,23.947l-4.365,0l0,-42.923l13.216,0c4.365,0 7.811,0.949 10.337,2.849c2.526,1.9 3.789,4.769 3.789,8.609c0,2.991 -0.939,5.507 -2.819,7.548c-1.879,2.041 -4.597,3.223 -8.154,3.547l12.368,20.37l-5.335,0l-11.762,-19.946l-7.275,0l0,19.946Z" style="fill:#1b1b1b;fill-rule:nonzero;"/><path d="M739.9,86.425c-0.727,1.091 -1.626,2.122 -2.697,3.092c-1.071,0.97 -2.294,1.808 -3.668,2.516c-1.374,0.707 -2.86,1.263 -4.456,1.667c-1.597,0.404 -3.284,0.606 -5.063,0.606c-3.193,0 -6.153,-0.566 -8.881,-1.697c-2.729,-1.132 -5.093,-2.698 -7.094,-4.699c-2,-2.001 -3.567,-4.375 -4.698,-7.123c-1.132,-2.749 -1.698,-5.76 -1.698,-9.034c0,-3.274 0.566,-6.285 1.698,-9.033c1.131,-2.748 2.698,-5.123 4.698,-7.124c2.001,-2 4.365,-3.567 7.094,-4.698c2.728,-1.132 5.688,-1.698 8.881,-1.698c2.668,0 5.336,0.526 8.003,1.577c2.668,1.05 4.951,2.788 6.851,5.213l-3.82,2.85c-0.444,-0.687 -1.05,-1.374 -1.818,-2.061c-0.768,-0.688 -1.647,-1.294 -2.638,-1.819c-0.99,-0.526 -2.051,-0.95 -3.183,-1.273c-1.131,-0.324 -2.263,-0.485 -3.395,-0.485c-2.748,0 -5.213,0.505 -7.396,1.515c-2.183,1.011 -4.032,2.365 -5.547,4.062c-1.516,1.698 -2.678,3.668 -3.486,5.911c-0.809,2.243 -1.213,4.598 -1.213,7.063c0,2.466 0.404,4.82 1.213,7.063c0.808,2.243 1.97,4.214 3.486,5.911c1.515,1.698 3.364,3.052 5.547,4.062c2.183,1.011 4.648,1.516 7.396,1.516c1.132,0 2.254,-0.101 3.365,-0.303c1.112,-0.202 2.203,-0.546 3.274,-1.031c1.071,-0.485 2.081,-1.142 3.031,-1.97c0.95,-0.829 1.829,-1.87 2.638,-3.122l3.576,2.546Z" style="fill:#1b1b1b;fill-rule:nonzero;"/><path d="M754.026,89.214l20.007,0l0,4.001l-24.372,0l0,-42.923l4.365,0l0,38.922Z" style="fill:#1b1b1b;fill-rule:nonzero;"/><path d="M786.765,89.214l22.977,0l0,4.001l-27.342,0l0,-42.923l26.615,0l0,4.001l-22.25,0l0,14.611l20.795,0l0,4.001l-20.795,0l0,16.309Z" style="fill:#1b1b1b;fill-rule:nonzero;"/><path d="M178.56,101.377l3.216,0l0,17.69l0.098,0c0.357,-0.617 0.812,-1.186 1.364,-1.706c0.552,-0.52 1.17,-0.966 1.852,-1.34c0.682,-0.373 1.405,-0.666 2.168,-0.877c0.764,-0.211 1.519,-0.317 2.267,-0.317c2.923,0 5.084,0.772 6.481,2.315c1.397,1.543 2.095,3.744 2.095,6.603l0,14.474l-3.216,0l0,-12.622c0,-2.534 -0.439,-4.475 -1.316,-5.823c-0.877,-1.349 -2.501,-2.023 -4.873,-2.023c-0.162,0 -0.617,0.065 -1.364,0.195c-0.748,0.13 -1.536,0.487 -2.364,1.072c-0.828,0.585 -1.568,1.462 -2.217,2.632c-0.65,1.169 -0.975,2.794 -0.975,4.873l0,11.696l-3.216,0l0,-36.842Z" style="fill:#4c4c4c;fill-rule:nonzero;"/><path d="M220.567,126.864c-0.812,0 -1.827,0.041 -3.046,0.122c-1.218,0.081 -2.388,0.276 -3.508,0.585c-1.121,0.308 -2.08,0.788 -2.876,1.437c-0.796,0.65 -1.194,1.544 -1.194,2.681c0,0.747 0.155,1.388 0.463,1.925c0.309,0.536 0.723,0.974 1.243,1.315c0.52,0.341 1.097,0.585 1.73,0.731c0.634,0.146 1.275,0.22 1.925,0.22c1.17,0 2.185,-0.195 3.046,-0.585c0.861,-0.39 1.584,-0.918 2.168,-1.584c0.585,-0.666 1.016,-1.446 1.292,-2.339c0.276,-0.894 0.414,-1.844 0.414,-2.851l0,-1.657l-1.657,0Zm1.657,-2.631l0,-0.585c0,-3.931 -1.949,-5.897 -5.848,-5.897c-2.664,0 -4.987,0.894 -6.969,2.68l-1.949,-2.29c2.144,-2.209 5.361,-3.314 9.649,-3.314c1.105,0 2.169,0.163 3.192,0.488c1.023,0.324 1.909,0.82 2.656,1.486c0.747,0.666 1.348,1.502 1.803,2.51c0.455,1.007 0.682,2.209 0.682,3.606l0,10.185c0,0.877 0.041,1.795 0.122,2.753c0.081,0.959 0.171,1.746 0.268,2.364l-3.119,0c-0.097,-0.553 -0.17,-1.154 -0.219,-1.803c-0.049,-0.65 -0.073,-1.284 -0.073,-1.901l-0.098,0c-0.942,1.527 -2.054,2.624 -3.338,3.29c-1.283,0.666 -2.851,0.999 -4.702,0.999c-1.008,0 -1.982,-0.139 -2.924,-0.415c-0.943,-0.276 -1.779,-0.698 -2.51,-1.267c-0.731,-0.568 -1.316,-1.267 -1.754,-2.095c-0.439,-0.829 -0.658,-1.795 -0.658,-2.9c0,-1.852 0.479,-3.305 1.437,-4.361c0.959,-1.056 2.161,-1.844 3.606,-2.364c1.446,-0.52 2.989,-0.845 4.63,-0.975c1.641,-0.129 3.143,-0.194 4.508,-0.194l1.608,0Z" style="fill:#4c4c4c;fill-rule:nonzero;"/><path d="M237.916,115.412c0.065,0.617 0.105,1.226 0.122,1.827c0.016,0.601 0.024,1.211 0.024,1.828l0.097,0c0.358,-0.617 0.813,-1.186 1.365,-1.706c0.552,-0.52 1.17,-0.966 1.852,-1.34c0.682,-0.373 1.405,-0.666 2.168,-0.877c0.764,-0.211 1.519,-0.317 2.266,-0.317c2.924,0 5.085,0.772 6.482,2.315c1.397,1.543 2.095,3.744 2.095,6.603l0,14.474l-3.216,0l0,-12.622c0,-2.534 -0.439,-4.475 -1.316,-5.823c-0.877,-1.349 -2.501,-2.023 -4.873,-2.023c-0.162,0 -0.617,0.065 -1.364,0.195c-0.748,0.13 -1.536,0.487 -2.364,1.072c-0.828,0.585 -1.568,1.462 -2.217,2.632c-0.65,1.169 -0.975,2.794 -0.975,4.873l0,11.696l-3.216,0l0,-17.788c0,-0.617 -0.025,-1.397 -0.073,-2.339c-0.049,-0.942 -0.106,-1.835 -0.171,-2.68l3.314,0Z" style="fill:#4c4c4c;fill-rule:nonzero;"/><path d="M265.839,126.815c0,1.267 0.204,2.453 0.61,3.558c0.406,1.104 0.982,2.063 1.73,2.875c0.747,0.812 1.648,1.454 2.704,1.925c1.056,0.471 2.25,0.707 3.582,0.707c1.3,0 2.51,-0.236 3.631,-0.707c1.121,-0.471 2.087,-1.113 2.899,-1.925c0.812,-0.812 1.446,-1.771 1.901,-2.875c0.455,-1.105 0.682,-2.291 0.682,-3.558c0,-1.267 -0.227,-2.453 -0.682,-3.557c-0.455,-1.105 -1.089,-2.063 -1.901,-2.875c-0.812,-0.813 -1.778,-1.454 -2.899,-1.925c-1.121,-0.471 -2.331,-0.707 -3.631,-0.707c-1.332,0 -2.526,0.236 -3.582,0.707c-1.056,0.471 -1.957,1.112 -2.704,1.925c-0.748,0.812 -1.324,1.77 -1.73,2.875c-0.406,1.104 -0.61,2.29 -0.61,3.557Zm20.809,11.404l-3.216,0l0,-3.801l-0.098,0c-0.519,0.779 -1.137,1.445 -1.851,1.998c-0.715,0.552 -1.462,1.007 -2.242,1.364c-0.78,0.358 -1.584,0.617 -2.412,0.78c-0.829,0.162 -1.617,0.244 -2.364,0.244c-1.787,0 -3.419,-0.301 -4.897,-0.902c-1.479,-0.601 -2.754,-1.438 -3.826,-2.51c-1.072,-1.072 -1.909,-2.339 -2.51,-3.801c-0.601,-1.462 -0.901,-3.054 -0.901,-4.776c0,-1.722 0.3,-3.313 0.901,-4.775c0.601,-1.462 1.438,-2.729 2.51,-3.802c1.072,-1.072 2.347,-1.908 3.826,-2.509c1.478,-0.601 3.11,-0.902 4.897,-0.902c0.747,0 1.535,0.081 2.364,0.244c0.828,0.162 1.632,0.422 2.412,0.78c0.78,0.357 1.527,0.812 2.242,1.364c0.714,0.552 1.332,1.218 1.851,1.998l0.098,0l0,-17.836l3.216,0l0,36.842Z" style="fill:#4c4c4c;fill-rule:nonzero;"/><path d="M327.73,120.773c-0.553,-0.845 -1.324,-1.56 -2.315,-2.145c-0.991,-0.584 -2.12,-0.877 -3.387,-0.877c-1.332,-0.032 -2.526,0.179 -3.582,0.634c-1.056,0.454 -1.957,1.088 -2.705,1.9c-0.747,0.812 -1.315,1.779 -1.705,2.9c-0.39,1.121 -0.585,2.331 -0.585,3.63c0,1.3 0.195,2.51 0.585,3.631c0.39,1.121 0.958,2.087 1.705,2.899c0.748,0.813 1.649,1.446 2.705,1.901c1.056,0.455 2.25,0.666 3.582,0.634c1.267,0 2.396,-0.293 3.387,-0.878c0.991,-0.584 1.762,-1.299 2.315,-2.144l2.631,1.998c-1.137,1.332 -2.42,2.315 -3.85,2.949c-1.429,0.633 -2.924,0.966 -4.483,0.999c-1.852,0.032 -3.525,-0.252 -5.019,-0.853c-1.495,-0.601 -2.77,-1.438 -3.826,-2.51c-1.056,-1.072 -1.86,-2.347 -2.412,-3.826c-0.553,-1.478 -0.829,-3.078 -0.829,-4.8c0,-1.722 0.276,-3.322 0.829,-4.8c0.552,-1.478 1.356,-2.753 2.412,-3.825c1.056,-1.072 2.331,-1.909 3.826,-2.51c1.494,-0.601 3.167,-0.885 5.019,-0.853c1.559,0.033 3.054,0.366 4.483,0.999c1.43,0.634 2.713,1.616 3.85,2.949l-2.631,1.998Z" style="fill:#4c4c4c;fill-rule:nonzero;"/><path d="M336.891,122.527c0,-1.007 -0.024,-2.031 -0.073,-3.07c-0.048,-1.04 -0.089,-2.388 -0.122,-4.045l3.168,0l0,4.24l0.098,0c0.227,-0.618 0.552,-1.211 0.974,-1.779c0.423,-0.569 0.934,-1.08 1.535,-1.535c0.601,-0.455 1.3,-0.82 2.096,-1.097c0.796,-0.276 1.697,-0.414 2.704,-0.414c0.91,0 1.706,0.098 2.388,0.293l-0.633,3.167c-0.423,-0.162 -1.04,-0.243 -1.852,-0.243c-1.235,0 -2.291,0.235 -3.168,0.706c-0.877,0.471 -1.608,1.072 -2.193,1.803c-0.584,0.731 -1.015,1.519 -1.291,2.364c-0.276,0.844 -0.414,1.657 -0.414,2.436l0,12.866l-3.217,0l0,-15.692Z" style="fill:#4c4c4c;fill-rule:nonzero;"/><path d="M367.642,126.864c-0.813,0 -1.828,0.041 -3.046,0.122c-1.219,0.081 -2.388,0.276 -3.509,0.585c-1.121,0.308 -2.079,0.788 -2.875,1.437c-0.796,0.65 -1.194,1.544 -1.194,2.681c0,0.747 0.154,1.388 0.463,1.925c0.308,0.536 0.723,0.974 1.242,1.315c0.52,0.341 1.097,0.585 1.73,0.731c0.634,0.146 1.276,0.22 1.925,0.22c1.17,0 2.185,-0.195 3.046,-0.585c0.861,-0.39 1.584,-0.918 2.169,-1.584c0.585,-0.666 1.015,-1.446 1.291,-2.339c0.276,-0.894 0.414,-1.844 0.414,-2.851l0,-1.657l-1.656,0Zm1.656,-2.631l0,-0.585c0,-3.931 -1.949,-5.897 -5.847,-5.897c-2.665,0 -4.987,0.894 -6.969,2.68l-1.949,-2.29c2.144,-2.209 5.36,-3.314 9.649,-3.314c1.104,0 2.168,0.163 3.191,0.488c1.024,0.324 1.909,0.82 2.656,1.486c0.748,0.666 1.349,1.502 1.804,2.51c0.454,1.007 0.682,2.209 0.682,3.606l0,10.185c0,0.877 0.04,1.795 0.122,2.753c0.081,0.959 0.17,1.746 0.268,2.364l-3.119,0c-0.098,-0.553 -0.171,-1.154 -0.22,-1.803c-0.048,-0.65 -0.073,-1.284 -0.073,-1.901l-0.097,0c-0.942,1.527 -2.055,2.624 -3.338,3.29c-1.284,0.666 -2.851,0.999 -4.703,0.999c-1.007,0 -1.982,-0.139 -2.924,-0.415c-0.942,-0.276 -1.779,-0.698 -2.51,-1.267c-0.731,-0.568 -1.315,-1.267 -1.754,-2.095c-0.439,-0.829 -0.658,-1.795 -0.658,-2.9c0,-1.852 0.479,-3.305 1.438,-4.361c0.958,-1.056 2.16,-1.844 3.606,-2.364c1.446,-0.52 2.989,-0.845 4.63,-0.975c1.64,-0.129 3.143,-0.194 4.507,-0.194l1.608,0Z" style="fill:#4c4c4c;fill-rule:nonzero;"/><path d="M392.544,118.336l-5.41,0l0,19.883l-3.216,0l0,-19.883l-4.824,0l0,-2.924l4.824,0l0,-6.238c0,-3.021 0.699,-5.174 2.096,-6.457c1.397,-1.283 3.248,-1.925 5.555,-1.925c0.455,0 0.918,0.033 1.389,0.098c0.471,0.065 0.934,0.146 1.389,0.243l-0.585,2.924c-0.39,-0.097 -0.796,-0.178 -1.218,-0.243c-0.423,-0.065 -0.845,-0.098 -1.267,-0.098c-0.877,0 -1.592,0.146 -2.144,0.439c-0.553,0.292 -0.975,0.706 -1.268,1.242c-0.292,0.537 -0.487,1.162 -0.584,1.877c-0.098,0.714 -0.147,1.478 -0.147,2.29l0,5.848l5.41,0l0,2.924Z" style="fill:#4c4c4c;fill-rule:nonzero;"/><path d="M410.087,118.336l-6.578,0l0,13.45c0,0.845 0.081,1.535 0.243,2.071c0.163,0.536 0.39,0.95 0.683,1.243c0.292,0.292 0.641,0.495 1.047,0.609c0.406,0.114 0.853,0.171 1.34,0.171c0.553,0 1.121,-0.082 1.706,-0.244c0.585,-0.163 1.121,-0.374 1.608,-0.634l0.146,2.973c-1.202,0.552 -2.647,0.829 -4.337,0.829c-0.617,0 -1.259,-0.082 -1.925,-0.244c-0.666,-0.163 -1.275,-0.471 -1.827,-0.926c-0.552,-0.455 -1.007,-1.072 -1.365,-1.852c-0.357,-0.78 -0.536,-1.803 -0.536,-3.07l0,-14.376l-4.824,0l0,-2.924l4.824,0l0,-6.433l3.217,0l0,6.433l6.578,0l0,2.924Z" style="fill:#4c4c4c;fill-rule:nonzero;"/><path d="M434.161,125.061c0,-2.177 -0.649,-3.939 -1.949,-5.287c-1.3,-1.349 -3.119,-2.023 -5.458,-2.023c-1.04,0 -2.047,0.203 -3.021,0.609c-0.975,0.406 -1.828,0.951 -2.559,1.633c-0.731,0.682 -1.316,1.462 -1.754,2.339c-0.439,0.877 -0.658,1.787 -0.658,2.729l15.399,0Zm-15.497,2.632c0.098,1.137 0.374,2.209 0.829,3.216c0.455,1.007 1.056,1.876 1.803,2.607c0.747,0.731 1.608,1.308 2.583,1.73c0.974,0.422 2.03,0.634 3.167,0.634c1.722,0 3.209,-0.398 4.459,-1.194c1.251,-0.796 2.201,-1.714 2.851,-2.754l2.486,2.047c-1.365,1.722 -2.868,2.956 -4.508,3.704c-1.641,0.747 -3.403,1.121 -5.288,1.121c-1.689,0 -3.257,-0.301 -4.702,-0.902c-1.446,-0.601 -2.689,-1.438 -3.728,-2.51c-1.04,-1.072 -1.86,-2.339 -2.461,-3.801c-0.601,-1.462 -0.902,-3.054 -0.902,-4.776c0,-1.722 0.292,-3.313 0.877,-4.775c0.585,-1.462 1.397,-2.729 2.437,-3.802c1.04,-1.072 2.258,-1.908 3.655,-2.509c1.397,-0.601 2.908,-0.902 4.532,-0.902c1.722,0 3.265,0.309 4.63,0.926c1.364,0.617 2.509,1.438 3.435,2.461c0.926,1.023 1.633,2.226 2.12,3.606c0.487,1.381 0.731,2.851 0.731,4.411l0,1.462l-19.006,0Z" style="fill:#4c4c4c;fill-rule:nonzero;"/><path d="M447.417,126.815c0,1.267 0.203,2.453 0.609,3.558c0.406,1.104 0.982,2.063 1.73,2.875c0.747,0.812 1.648,1.454 2.704,1.925c1.056,0.471 2.25,0.707 3.582,0.707c1.3,0 2.51,-0.236 3.631,-0.707c1.121,-0.471 2.087,-1.113 2.899,-1.925c0.812,-0.812 1.446,-1.771 1.901,-2.875c0.455,-1.105 0.682,-2.291 0.682,-3.558c0,-1.267 -0.227,-2.453 -0.682,-3.557c-0.455,-1.105 -1.089,-2.063 -1.901,-2.875c-0.812,-0.813 -1.778,-1.454 -2.899,-1.925c-1.121,-0.471 -2.331,-0.707 -3.631,-0.707c-1.332,0 -2.526,0.236 -3.582,0.707c-1.056,0.471 -1.957,1.112 -2.704,1.925c-0.748,0.812 -1.324,1.77 -1.73,2.875c-0.406,1.104 -0.609,2.29 -0.609,3.557Zm20.808,11.404l-3.216,0l0,-3.801l-0.098,0c-0.519,0.779 -1.137,1.445 -1.851,1.998c-0.715,0.552 -1.462,1.007 -2.242,1.364c-0.78,0.358 -1.584,0.617 -2.412,0.78c-0.829,0.162 -1.617,0.244 -2.364,0.244c-1.787,0 -3.419,-0.301 -4.897,-0.902c-1.479,-0.601 -2.754,-1.438 -3.826,-2.51c-1.072,-1.072 -1.909,-2.339 -2.51,-3.801c-0.601,-1.462 -0.901,-3.054 -0.901,-4.776c0,-1.722 0.3,-3.313 0.901,-4.775c0.601,-1.462 1.438,-2.729 2.51,-3.802c1.072,-1.072 2.347,-1.908 3.826,-2.509c1.478,-0.601 3.11,-0.902 4.897,-0.902c0.747,0 1.535,0.081 2.364,0.244c0.828,0.162 1.632,0.422 2.412,0.78c0.78,0.357 1.527,0.812 2.242,1.364c0.714,0.552 1.332,1.218 1.851,1.998l0.098,0l0,-17.836l3.216,0l0,36.842Z" style="fill:#4c4c4c;fill-rule:nonzero;"/><path d="M493.664,115.412l5.263,18.518l0.097,0l6.092,-18.518l3.313,0l6.092,18.518l0.098,0l5.263,-18.518l3.801,0l-7.213,22.807l-3.606,0l-6.043,-18.714l-0.097,0l-6.043,18.714l-3.606,0l-7.213,-22.807l3.802,0Z" style="fill:#4c4c4c;fill-rule:nonzero;"/><path d="M547.562,125.061c0,-2.177 -0.65,-3.939 -1.95,-5.287c-1.299,-1.349 -3.119,-2.023 -5.458,-2.023c-1.039,0 -2.046,0.203 -3.021,0.609c-0.975,0.406 -1.828,0.951 -2.559,1.633c-0.731,0.682 -1.315,1.462 -1.754,2.339c-0.439,0.877 -0.658,1.787 -0.658,2.729l15.4,0Zm-15.497,2.632c0.097,1.137 0.373,2.209 0.828,3.216c0.455,1.007 1.056,1.876 1.803,2.607c0.747,0.731 1.608,1.308 2.583,1.73c0.975,0.422 2.031,0.634 3.168,0.634c1.722,0 3.208,-0.398 4.459,-1.194c1.251,-0.796 2.201,-1.714 2.851,-2.754l2.485,2.047c-1.365,1.722 -2.867,2.956 -4.508,3.704c-1.64,0.747 -3.403,1.121 -5.287,1.121c-1.69,0 -3.257,-0.301 -4.703,-0.902c-1.446,-0.601 -2.688,-1.438 -3.728,-2.51c-1.04,-1.072 -1.86,-2.339 -2.461,-3.801c-0.601,-1.462 -0.902,-3.054 -0.902,-4.776c0,-1.722 0.293,-3.313 0.878,-4.775c0.584,-1.462 1.397,-2.729 2.436,-3.802c1.04,-1.072 2.258,-1.908 3.655,-2.509c1.397,-0.601 2.908,-0.902 4.532,-0.902c1.722,0 3.265,0.309 4.63,0.926c1.364,0.617 2.51,1.438 3.436,2.461c0.925,1.023 1.632,2.226 2.119,3.606c0.488,1.381 0.731,2.851 0.731,4.411l0,1.462l-19.005,0Z" style="fill:#4c4c4c;fill-rule:nonzero;"/><path d="M579.676,126.815c0,-1.267 -0.203,-2.453 -0.609,-3.557c-0.406,-1.105 -0.983,-2.063 -1.73,-2.875c-0.747,-0.813 -1.649,-1.454 -2.705,-1.925c-1.055,-0.471 -2.249,-0.707 -3.581,-0.707c-1.332,0 -2.551,0.236 -3.655,0.707c-1.105,0.471 -2.063,1.112 -2.875,1.925c-0.813,0.812 -1.446,1.77 -1.901,2.875c-0.455,1.104 -0.682,2.29 -0.682,3.557c0,1.267 0.227,2.453 0.682,3.558c0.455,1.104 1.088,2.063 1.901,2.875c0.812,0.812 1.77,1.454 2.875,1.925c1.104,0.471 2.323,0.707 3.655,0.707c1.332,0 2.526,-0.236 3.581,-0.707c1.056,-0.471 1.958,-1.113 2.705,-1.925c0.747,-0.812 1.324,-1.771 1.73,-2.875c0.406,-1.105 0.609,-2.291 0.609,-3.558Zm-20.808,-25.438l3.216,0l0,17.836l0.097,0c0.52,-0.78 1.137,-1.446 1.852,-1.998c0.715,-0.552 1.462,-1.007 2.242,-1.364c0.78,-0.358 1.584,-0.618 2.412,-0.78c0.829,-0.163 1.616,-0.244 2.364,-0.244c1.787,0 3.419,0.301 4.897,0.902c1.478,0.601 2.754,1.437 3.826,2.509c1.072,1.073 1.908,2.34 2.509,3.802c0.602,1.462 0.902,3.053 0.902,4.775c0,1.722 -0.3,3.314 -0.902,4.776c-0.601,1.462 -1.437,2.729 -2.509,3.801c-1.072,1.072 -2.348,1.909 -3.826,2.51c-1.478,0.601 -3.11,0.902 -4.897,0.902c-0.748,0 -1.535,-0.082 -2.364,-0.244c-0.828,-0.163 -1.632,-0.422 -2.412,-0.78c-0.78,-0.357 -1.527,-0.812 -2.242,-1.364c-0.715,-0.553 -1.332,-1.219 -1.852,-1.998l-0.097,0l0,3.801l-3.216,0l0,-36.842Z" style="fill:#4c4c4c;fill-rule:nonzero;"/><path d="M618.175,120.821c-0.487,-0.942 -1.137,-1.689 -1.949,-2.241c-0.813,-0.553 -1.803,-0.829 -2.973,-0.829c-0.552,0 -1.113,0.065 -1.681,0.195c-0.569,0.13 -1.081,0.333 -1.535,0.609c-0.455,0.276 -0.821,0.626 -1.097,1.048c-0.276,0.422 -0.414,0.942 -0.414,1.559c0,1.073 0.374,1.852 1.121,2.34c0.747,0.487 1.868,0.909 3.362,1.267l3.265,0.779c1.592,0.358 2.916,1.081 3.972,2.169c1.056,1.088 1.584,2.445 1.584,4.069c0,1.235 -0.252,2.299 -0.756,3.192c-0.503,0.893 -1.169,1.624 -1.998,2.193c-0.828,0.569 -1.778,0.983 -2.85,1.243c-1.073,0.26 -2.161,0.39 -3.265,0.39c-1.755,0 -3.387,-0.333 -4.898,-0.999c-1.511,-0.666 -2.802,-1.812 -3.874,-3.436l2.777,-1.901c0.65,1.04 1.471,1.868 2.461,2.486c0.991,0.617 2.169,0.926 3.534,0.926c0.649,0 1.299,-0.074 1.949,-0.22c0.65,-0.146 1.226,-0.373 1.73,-0.682c0.503,-0.309 0.91,-0.707 1.218,-1.194c0.309,-0.487 0.463,-1.056 0.463,-1.706c0,-1.137 -0.422,-1.957 -1.267,-2.461c-0.845,-0.503 -1.868,-0.901 -3.07,-1.193l-3.119,-0.731c-0.39,-0.098 -0.918,-0.26 -1.584,-0.488c-0.666,-0.227 -1.316,-0.568 -1.949,-1.023c-0.634,-0.455 -1.178,-1.048 -1.633,-1.779c-0.454,-0.731 -0.682,-1.632 -0.682,-2.705c0,-1.169 0.236,-2.193 0.707,-3.07c0.471,-0.877 1.104,-1.592 1.9,-2.144c0.796,-0.552 1.698,-0.966 2.705,-1.243c1.007,-0.276 2.047,-0.414 3.119,-0.414c1.592,0 3.07,0.309 4.435,0.926c1.364,0.617 2.42,1.673 3.167,3.168l-2.875,1.9Z" style="fill:#4c4c4c;fill-rule:nonzero;"/><path d="M648.34,126.815c0,-1.267 -0.203,-2.453 -0.609,-3.557c-0.406,-1.105 -0.983,-2.063 -1.73,-2.875c-0.747,-0.813 -1.649,-1.454 -2.705,-1.925c-1.055,-0.471 -2.249,-0.707 -3.581,-0.707c-1.332,0 -2.526,0.236 -3.582,0.707c-1.056,0.471 -1.949,1.112 -2.68,1.925c-0.731,0.812 -1.3,1.77 -1.706,2.875c-0.406,1.104 -0.609,2.29 -0.609,3.557c0,1.267 0.203,2.453 0.609,3.558c0.406,1.104 0.975,2.063 1.706,2.875c0.731,0.812 1.624,1.454 2.68,1.925c1.056,0.471 2.25,0.707 3.582,0.707c1.332,0 2.526,-0.236 3.581,-0.707c1.056,-0.471 1.958,-1.113 2.705,-1.925c0.747,-0.812 1.324,-1.771 1.73,-2.875c0.406,-1.105 0.609,-2.291 0.609,-3.558Zm3.509,0c0,1.722 -0.301,3.314 -0.902,4.776c-0.601,1.462 -1.437,2.729 -2.509,3.801c-1.072,1.072 -2.348,1.909 -3.826,2.51c-1.478,0.601 -3.111,0.902 -4.897,0.902c-1.755,0 -3.371,-0.301 -4.849,-0.902c-1.478,-0.601 -2.754,-1.438 -3.826,-2.51c-1.072,-1.072 -1.908,-2.339 -2.509,-3.801c-0.601,-1.462 -0.902,-3.054 -0.902,-4.776c0,-1.722 0.301,-3.313 0.902,-4.775c0.601,-1.462 1.437,-2.729 2.509,-3.802c1.072,-1.072 2.348,-1.908 3.826,-2.509c1.478,-0.601 3.094,-0.902 4.849,-0.902c1.786,0 3.419,0.301 4.897,0.902c1.478,0.601 2.754,1.437 3.826,2.509c1.072,1.073 1.908,2.34 2.509,3.802c0.601,1.462 0.902,3.053 0.902,4.775Z" style="fill:#4c4c4c;fill-rule:nonzero;"/><rect x="660.377" y="101.377" width="3.216" height="36.842" style="fill:#4c4c4c;fill-rule:nonzero;"/><path d="M689.763,138.219c-0.065,-0.618 -0.106,-1.227 -0.122,-1.828c-0.016,-0.601 -0.024,-1.21 -0.024,-1.827l-0.098,0c-0.357,0.617 -0.812,1.186 -1.364,1.705c-0.553,0.52 -1.17,0.967 -1.852,1.341c-0.682,0.373 -1.405,0.666 -2.169,0.877c-0.763,0.211 -1.519,0.317 -2.266,0.317c-2.924,0 -5.084,-0.772 -6.481,-2.315c-1.397,-1.543 -2.096,-3.745 -2.096,-6.604l0,-14.473l3.217,0l0,12.622c0,1.267 0.097,2.388 0.292,3.362c0.195,0.975 0.528,1.795 0.999,2.461c0.471,0.666 1.105,1.17 1.901,1.511c0.796,0.341 1.795,0.512 2.997,0.512c0.162,0 0.617,-0.065 1.364,-0.195c0.747,-0.13 1.535,-0.488 2.364,-1.072c0.828,-0.585 1.567,-1.462 2.217,-2.632c0.65,-1.17 0.975,-2.794 0.975,-4.873l0,-11.696l3.216,0l0,17.787c0,0.618 0.024,1.397 0.073,2.339c0.049,0.943 0.106,1.836 0.171,2.681l-3.314,0Z" style="fill:#4c4c4c;fill-rule:nonzero;"/><path d="M714.129,118.336l-6.579,0l0,13.45c0,0.845 0.081,1.535 0.244,2.071c0.162,0.536 0.39,0.95 0.682,1.243c0.292,0.292 0.642,0.495 1.048,0.609c0.406,0.114 0.853,0.171 1.34,0.171c0.552,0 1.121,-0.082 1.706,-0.244c0.584,-0.163 1.12,-0.374 1.608,-0.634l0.146,2.973c-1.202,0.552 -2.648,0.829 -4.337,0.829c-0.617,0 -1.259,-0.082 -1.925,-0.244c-0.666,-0.163 -1.275,-0.471 -1.828,-0.926c-0.552,-0.455 -1.007,-1.072 -1.364,-1.852c-0.357,-0.78 -0.536,-1.803 -0.536,-3.07l0,-14.376l-4.825,0l0,-2.924l4.825,0l0,-6.433l3.216,0l0,6.433l6.579,0l0,2.924Z" style="fill:#4c4c4c;fill-rule:nonzero;"/><path d="M725.143,106.64c0,0.682 -0.244,1.243 -0.731,1.681c-0.488,0.439 -1.024,0.658 -1.609,0.658c-0.584,0 -1.12,-0.219 -1.608,-0.658c-0.487,-0.438 -0.731,-0.999 -0.731,-1.681c0,-0.682 0.244,-1.243 0.731,-1.681c0.488,-0.439 1.024,-0.658 1.608,-0.658c0.585,0 1.121,0.219 1.609,0.658c0.487,0.438 0.731,0.999 0.731,1.681Zm-0.731,31.579l-3.217,0l0,-22.807l3.217,0l0,22.807Z" style="fill:#4c4c4c;fill-rule:nonzero;"/><path d="M753.651,126.815c0,-1.267 -0.203,-2.453 -0.609,-3.557c-0.406,-1.105 -0.983,-2.063 -1.73,-2.875c-0.747,-0.813 -1.649,-1.454 -2.705,-1.925c-1.056,-0.471 -2.25,-0.707 -3.582,-0.707c-1.332,0 -2.526,0.236 -3.581,0.707c-1.056,0.471 -1.95,1.112 -2.681,1.925c-0.731,0.812 -1.299,1.77 -1.705,2.875c-0.406,1.104 -0.61,2.29 -0.61,3.557c0,1.267 0.204,2.453 0.61,3.558c0.406,1.104 0.974,2.063 1.705,2.875c0.731,0.812 1.625,1.454 2.681,1.925c1.055,0.471 2.249,0.707 3.581,0.707c1.332,0 2.526,-0.236 3.582,-0.707c1.056,-0.471 1.958,-1.113 2.705,-1.925c0.747,-0.812 1.324,-1.771 1.73,-2.875c0.406,-1.105 0.609,-2.291 0.609,-3.558Zm3.509,0c0,1.722 -0.301,3.314 -0.902,4.776c-0.601,1.462 -1.437,2.729 -2.509,3.801c-1.073,1.072 -2.348,1.909 -3.826,2.51c-1.478,0.601 -3.111,0.902 -4.898,0.902c-1.754,0 -3.37,-0.301 -4.848,-0.902c-1.479,-0.601 -2.754,-1.438 -3.826,-2.51c-1.072,-1.072 -1.909,-2.339 -2.51,-3.801c-0.601,-1.462 -0.901,-3.054 -0.901,-4.776c0,-1.722 0.3,-3.313 0.901,-4.775c0.601,-1.462 1.438,-2.729 2.51,-3.802c1.072,-1.072 2.347,-1.908 3.826,-2.509c1.478,-0.601 3.094,-0.902 4.848,-0.902c1.787,0 3.42,0.301 4.898,0.902c1.478,0.601 2.753,1.437 3.826,2.509c1.072,1.073 1.908,2.34 2.509,3.802c0.601,1.462 0.902,3.053 0.902,4.775Z" style="fill:#4c4c4c;fill-rule:nonzero;"/><path d="M768.027,115.412c0.065,0.617 0.106,1.226 0.122,1.827c0.016,0.601 0.024,1.211 0.024,1.828l0.098,0c0.357,-0.617 0.812,-1.186 1.364,-1.706c0.553,-0.52 1.17,-0.966 1.852,-1.34c0.682,-0.373 1.405,-0.666 2.169,-0.877c0.763,-0.211 1.519,-0.317 2.266,-0.317c2.924,0 5.084,0.772 6.481,2.315c1.397,1.543 2.096,3.744 2.096,6.603l0,14.474l-3.217,0l0,-12.622c0,-2.534 -0.438,-4.475 -1.315,-5.823c-0.878,-1.349 -2.502,-2.023 -4.874,-2.023c-0.162,0 -0.617,0.065 -1.364,0.195c-0.747,0.13 -1.535,0.487 -2.364,1.072c-0.828,0.585 -1.567,1.462 -2.217,2.632c-0.65,1.169 -0.975,2.794 -0.975,4.873l0,11.696l-3.216,0l0,-17.788c0,-0.617 -0.024,-1.397 -0.073,-2.339c-0.049,-0.942 -0.106,-1.835 -0.171,-2.68l3.314,0Z" style="fill:#4c4c4c;fill-rule:nonzero;"/><path d="M806.087,120.821c-0.487,-0.942 -1.137,-1.689 -1.949,-2.241c-0.812,-0.553 -1.803,-0.829 -2.973,-0.829c-0.552,0 -1.113,0.065 -1.681,0.195c-0.569,0.13 -1.08,0.333 -1.535,0.609c-0.455,0.276 -0.821,0.626 -1.097,1.048c-0.276,0.422 -0.414,0.942 -0.414,1.559c0,1.073 0.374,1.852 1.121,2.34c0.747,0.487 1.868,0.909 3.362,1.267l3.266,0.779c1.591,0.358 2.915,1.081 3.971,2.169c1.056,1.088 1.584,2.445 1.584,4.069c0,1.235 -0.252,2.299 -0.755,3.192c-0.504,0.893 -1.17,1.624 -1.998,2.193c-0.829,0.569 -1.779,0.983 -2.851,1.243c-1.072,0.26 -2.161,0.39 -3.265,0.39c-1.755,0 -3.387,-0.333 -4.898,-0.999c-1.511,-0.666 -2.802,-1.812 -3.874,-3.436l2.778,-1.901c0.649,1.04 1.47,1.868 2.461,2.486c0.991,0.617 2.168,0.926 3.533,0.926c0.65,0 1.299,-0.074 1.949,-0.22c0.65,-0.146 1.226,-0.373 1.73,-0.682c0.504,-0.309 0.91,-0.707 1.218,-1.194c0.309,-0.487 0.463,-1.056 0.463,-1.706c0,-1.137 -0.422,-1.957 -1.267,-2.461c-0.844,-0.503 -1.868,-0.901 -3.07,-1.193l-3.119,-0.731c-0.39,-0.098 -0.918,-0.26 -1.584,-0.488c-0.666,-0.227 -1.315,-0.568 -1.949,-1.023c-0.633,-0.455 -1.178,-1.048 -1.632,-1.779c-0.455,-0.731 -0.683,-1.632 -0.683,-2.705c0,-1.169 0.236,-2.193 0.707,-3.07c0.471,-0.877 1.105,-1.592 1.901,-2.144c0.796,-0.552 1.697,-0.966 2.704,-1.243c1.007,-0.276 2.047,-0.414 3.119,-0.414c1.592,0 3.07,0.309 4.435,0.926c1.364,0.617 2.42,1.673 3.167,3.168l-2.875,1.9Z" style="fill:#4c4c4c;fill-rule:nonzero;"/></g></svg>